<?xml version="1.0" standalone="no"?>
<!DOCTYPE svg PUBLIC "-//W3C//DTD SVG 20010904//EN"
 "http://www.w3.org/TR/2001/REC-SVG-20010904/DTD/svg10.dtd">
<svg version="1.0" xmlns="http://www.w3.org/2000/svg"
 width="205.000000pt" height="148.000000pt" viewBox="0 0 205.000000 148.000000"
 preserveAspectRatio="xMidYMid meet">

<g transform="translate(0.000000,148.000000) scale(0.100000,-0.100000)"
fill="#000000" stroke="none">
<path d="M1450 1451 c-42 -15 -95 -40 -118 -55 -46 -29 -124 -101 -139 -129
-8 -16 -11 -16 -42 -1 -26 13 -45 15 -90 9 -31 -5 -87 -8 -126 -9 -38 -1 -76
-5 -82 -9 -8 -5 -33 7 -65 31 -114 85 -184 114 -367 152 -153 33 -257 25 -281
-19 -20 -38 -28 -112 -20 -179 6 -48 4 -87 -7 -140 -9 -45 -14 -108 -11 -158
3 -76 6 -85 32 -113 17 -17 45 -34 65 -37 43 -8 257 12 329 30 28 8 52 12 52
9 0 -2 -15 -23 -34 -46 -52 -65 -97 -140 -171 -287 -68 -135 -128 -233 -170
-280 -29 -32 -75 -100 -75 -111 0 -5 26 -9 58 -9 70 0 183 -30 263 -71 58 -29
63 -30 186 -27 l127 3 29 90 c42 132 64 267 77 475 9 162 32 336 46 350 17 16
97 25 155 16 l64 -9 1 -171 c0 -220 19 -314 150 -743 2 -10 43 -13 156 -13
145 0 157 2 228 29 44 17 114 34 165 41 104 12 165 27 165 40 0 5 -28 35 -61
67 -73 69 -172 215 -252 373 -33 63 -86 155 -118 203 -39 59 -53 87 -42 83
118 -34 142 -38 203 -34 165 12 180 51 133 340 -14 89 -14 103 2 183 9 49 14
102 11 121 l-7 34 -172 0 c-163 -1 -176 -2 -247 -29z m-1265 -79 c-3 -3 -11 0
-18 7 -9 10 -8 11 6 5 10 -3 15 -9 12 -12z m8 -1216 c-10 -13 -20 -22 -22 -20
-4 4 29 44 36 44 2 0 -4 -11 -14 -24z m144 -52 c-3 -3 -12 -4 -19 -1 -8 3 -5
6 6 6 11 1 17 -2 13 -5z m203 -84 c0 -5 -2 -10 -4 -10 -3 0 -8 5 -11 10 -3 6
-1 10 4 10 6 0 11 -4 11 -10z"/>
</g>
</svg>
